<?xml version="1.0" standalone="no"?>
<!DOCTYPE svg PUBLIC "-//W3C//DTD SVG 20010904//EN"
 "http://www.w3.org/TR/2001/REC-SVG-20010904/DTD/svg10.dtd">
<svg version="1.0" xmlns="http://www.w3.org/2000/svg"
 width="202.000000pt" height="446.000000pt" viewBox="0 0 202.000000 446.000000"
 preserveAspectRatio="xMidYMid meet">
<metadata>
Created by potrace 1.13, written by Peter Selinger 2001-2015
</metadata>
<g transform="translate(0.000000,446.000000) scale(0.100000,-0.100000)"
fill="#000000" stroke="none">
<path d="M0 2230 l0 -2230 1010 0 1010 0 0 2230 0 2230 -1010 0 -1010 0 0
-2230z m1304 1978 c5 -10 7 -10 12 0 3 6 14 12 24 12 10 0 20 -6 23 -12 3 -10
8 -9 22 2 14 11 19 12 22 3 3 -7 11 -13 19 -13 8 0 14 -9 14 -20 0 -11 4 -20
9 -20 16 0 24 -42 11 -50 -19 -12 -5 -38 27 -52 38 -16 38 -15 22 -35 -12 -15
-12 -16 4 -10 11 4 17 2 17 -8 0 -8 -4 -15 -10 -15 -5 0 -10 -5 -10 -11 0 -5
4 -8 9 -5 5 3 16 -5 25 -19 15 -23 15 -26 1 -31 -23 -9 -18 -23 11 -30 17 -4
22 -9 14 -14 -7 -5 -11 -19 -8 -34 3 -15 0 -31 -9 -37 -7 -7 -11 -20 -8 -30 5
-14 2 -17 -10 -13 -11 5 -18 0 -22 -15 -6 -24 -8 -25 -33 -11 -16 9 -18 8 -13
-6 5 -13 3 -15 -8 -9 -8 5 -27 8 -44 6 -32 -3 -115 -46 -127 -66 -4 -6 -25
-20 -48 -30 -35 -16 -46 -27 -37 -38 1 -2 -5 -14 -14 -28 -9 -14 -15 -37 -14
-51 4 -38 -21 -55 -91 -63 -48 -5 -63 -3 -73 9 -7 9 -35 19 -62 22 -47 6 -48
7 -30 24 13 11 18 25 15 41 -2 13 -1 17 2 9 4 -8 15 -26 25 -39 19 -23 19 -23
19 -2 0 11 -4 21 -9 21 -5 0 -12 9 -16 19 -3 11 -19 24 -35 30 -17 5 -30 14
-30 19 0 5 -23 12 -52 15 -28 4 -54 11 -58 16 -10 17 -128 10 -153 -9 -12 -10
-32 -20 -44 -24 -13 -4 -29 -24 -40 -51 -20 -50 -22 -51 -64 -30 l-30 16 3 99
c2 54 0 96 -4 94 -12 -8 -14 30 -5 81 3 17 9 70 12 119 5 75 10 94 33 125 24
32 47 53 62 57 3 0 13 4 23 8 9 5 26 6 37 3 11 -3 20 -2 20 2 0 4 19 8 42 10
23 1 46 5 51 8 6 4 8 -1 4 -11 -5 -12 -3 -15 6 -9 18 11 35 14 122 18 44 3 91
6 105 8 14 3 33 5 43 6 9 0 17 7 17 15 0 11 8 12 39 5 41 -9 134 3 155 20 6 5
25 11 41 14 17 2 33 5 37 6 3 0 9 -5 12 -11z m-924 -741 c6 -23 15 -50 21 -60
6 -11 7 -37 3 -63 -4 -27 -2 -44 4 -44 5 0 12 -19 15 -42 7 -61 25 -127 47
-174 25 -51 25 -61 -1 -74 -15 -9 -28 -9 -49 0 -54 22 -67 47 -84 170 -10 63
-21 131 -27 151 -5 21 -7 43 -4 51 3 7 1 36 -4 63 -12 67 -1 88 39 74 23 -9
32 -20 40 -52z m604 -13 c20 -20 21 -44 1 -44 -8 0 -15 -3 -16 -7 0 -5 -2 -20
-4 -35 -2 -16 1 -28 7 -28 7 0 6 -5 -1 -14 -28 -33 -241 -49 -337 -25 -48 12
-58 24 -68 79 -6 34 -5 35 25 35 24 0 29 -4 25 -17 -4 -17 6 -23 29 -18 6 1
39 2 75 1 36 0 83 5 105 11 22 6 51 12 65 13 14 1 31 3 38 4 6 0 12 8 12 16 0
13 4 14 20 5 16 -9 20 -8 20 5 0 8 -4 15 -10 15 -5 0 -10 5 -10 10 0 14 6 13
24 -6z m-498 -29 c13 -24 26 -35 41 -35 18 0 25 -9 33 -41 17 -61 52 -73 220
-74 84 0 148 5 170 13 39 13 67 56 72 107 3 29 4 30 66 33 l62 3 -1 -33 c0
-18 -3 -27 -6 -20 -8 20 -25 14 -18 -7 3 -11 6 -51 6 -90 0 -73 2 -75 69 -133
11 -10 20 -28 20 -41 0 -22 -52 -89 -67 -86 -25 4 -43 -2 -37 -13 5 -8 0 -9
-17 -4 -13 4 -34 10 -47 13 -14 3 -21 11 -18 19 3 8 -2 14 -12 15 -9 0 -28 2
-41 3 l-24 3 24 -20 c24 -20 24 -20 2 -14 -14 3 -24 0 -25 -6 0 -7 -2 -16 -2
-22 -1 -5 -6 -17 -11 -25 -7 -12 -6 -13 6 -3 12 10 20 9 37 -2 14 -10 23 -12
27 -5 9 15 67 2 78 -16 5 -8 23 -14 45 -13 37 1 37 1 11 12 -25 11 -26 13 -12
35 9 12 21 22 27 22 6 0 4 -5 -4 -10 -12 -7 -12 -12 -3 -21 9 -9 15 -9 27 0 8
7 20 10 26 6 6 -4 17 -2 25 5 9 7 15 8 20 0 3 -5 16 -8 28 -5 58 12 108 14
101 4 -3 -6 -13 -8 -21 -5 -12 5 -14 1 -10 -14 3 -11 2 -18 -3 -15 -4 3 -25
-2 -46 -9 -22 -8 -32 -15 -24 -16 12 0 11 -3 -3 -11 -10 -6 -55 -10 -100 -10
-57 0 -77 -3 -67 -9 19 -12 -251 -11 -294 1 -16 5 -31 7 -33 5 -7 -7 9 -36 17
-31 5 3 28 -10 52 -28 24 -18 50 -31 57 -29 8 3 11 0 7 -7 -4 -7 -2 -9 7 -5 8
3 18 0 23 -7 4 -8 3 -10 -4 -5 -7 4 -12 5 -12 2 0 -9 73 -40 92 -39 10 1 16
-2 13 -8 -4 -5 1 -9 10 -9 9 0 13 5 10 10 -3 6 4 10 17 11 18 1 16 3 -9 10
-18 5 -33 14 -33 18 0 5 -9 7 -20 4 -11 -3 -20 0 -20 6 0 6 -7 11 -16 11 -17
0 -64 44 -64 59 0 5 64 9 143 10 143 2 169 3 197 14 32 12 121 29 126 24 9 -8
-60 -77 -76 -77 -9 0 -31 -11 -50 -25 -23 -17 -28 -25 -17 -25 9 0 17 -4 17
-9 0 -12 52 -5 60 9 6 9 9 9 15 -1 11 -17 -39 -59 -69 -59 -13 0 -29 -7 -36
-15 -8 -9 -17 -12 -22 -7 -10 10 -58 4 -58 -8 0 -4 -17 -8 -37 -8 -39 0 -99
25 -127 54 -10 9 -24 13 -33 9 -15 -5 -13 -9 11 -29 49 -38 107 -50 217 -42
83 5 106 10 140 32 50 31 139 121 139 140 0 8 4 14 9 14 5 0 12 18 16 40 8 46
20 52 28 13 6 -28 -21 -135 -35 -141 -17 -8 -7 -23 12 -17 11 3 28 1 37 -5 15
-9 14 -10 -9 -6 -22 5 -26 3 -22 -9 5 -11 -1 -15 -21 -15 l-28 0 21 -18 c14
-12 18 -23 12 -32 -5 -8 -4 -22 2 -33 8 -16 7 -22 -6 -29 -18 -10 -22 -38 -6
-38 6 0 10 -6 10 -12 -1 -7 -9 -3 -19 10 -11 12 -23 22 -27 22 -4 0 -3 -5 4
-12 17 -17 15 -28 -5 -29 -17 -1 -17 -2 0 -6 19 -5 19 -5 11 -27 -5 -13 -9
-14 -20 -5 -11 9 -14 8 -14 -5 0 -10 -9 -16 -22 -17 -17 -1 -19 -2 -5 -6 22
-6 22 -20 -2 -32 -15 -8 -18 -7 -17 6 0 9 -5 18 -11 20 -7 3 -13 -2 -13 -11 0
-16 -36 -22 -112 -19 -18 1 -28 -4 -28 -14 0 -8 5 -11 10 -8 6 3 10 1 10 -5 0
-6 -11 -8 -25 -6 -27 5 -32 -3 -13 -22 9 -9 7 -13 -7 -18 -11 -5 -21 -1 -27
11 -8 14 -12 15 -19 4 -6 -10 -9 -7 -9 11 0 19 -3 21 -12 12 -22 -22 -63 -14
-91 18 -15 16 -27 35 -27 42 0 7 -5 20 -11 28 -9 13 -10 12 -5 -2 3 -10 1 -18
-4 -18 -9 0 -12 14 -9 37 2 16 -33 24 -48 11 -14 -11 -15 -9 -11 20 2 17 1 32
-4 32 -5 0 -3 10 3 23 l11 22 -21 -22 c-23 -24 -41 -30 -41 -13 0 6 5 10 11
10 8 0 9 4 0 13 -6 8 -7 17 -3 22 4 4 -4 4 -18 0 -40 -12 -43 -11 -57 15 -7
15 -13 19 -13 10 -1 -11 -4 -10 -15 4 -9 12 -12 29 -9 40 l7 21 -23 -20 c-13
-11 -20 -15 -17 -8 4 6 4 19 1 28 -5 13 -8 14 -15 3 -7 -10 -9 -9 -9 5 0 20
-11 22 -29 5 -11 -11 -11 -9 -1 11 8 15 8 21 1 17 -6 -4 -11 -2 -11 5 0 8 -4
8 -13 1 -12 -10 -47 6 -47 22 0 4 -8 16 -19 27 -29 31 -52 130 -62 263 -4 67
-13 150 -19 186 -18 105 -27 190 -20 190 4 0 15 -16 26 -35z m1008 2 c-1 -9 4
-17 11 -17 7 0 15 -9 18 -20 9 -33 -55 -59 -162 -65 -52 -4 -91 -2 -91 3 0 5
-12 8 -27 6 -28 -4 -28 -4 -3 5 14 4 33 4 43 -1 12 -6 22 -4 33 7 8 8 23 15
32 15 13 1 10 6 -10 23 -50 41 -38 56 50 60 104 4 107 4 106 -16z m126 -36
c-4 -21 -6 -52 -5 -67 1 -16 0 -20 -2 -9 -9 37 -24 41 -21 6 1 -18 8 -36 15
-38 7 -3 13 -18 13 -34 0 -15 6 -32 13 -36 18 -10 30 -70 16 -79 -6 -4 -6 -11
2 -20 6 -8 8 -18 4 -22 -4 -4 -10 -1 -12 6 -3 6 -9 12 -14 12 -15 0 -10 -28 6
-38 13 -7 14 -14 5 -36 -14 -38 -13 -49 6 -42 12 5 15 2 10 -10 -3 -8 -6 -24
-6 -35 0 -10 -5 -19 -11 -19 -5 0 -7 5 -3 11 4 7 1 10 -7 7 -9 -3 -14 -20 -14
-50 0 -26 -3 -44 -6 -42 -9 5 -20 -26 -14 -37 4 -5 -1 -6 -9 -3 -19 7 -20 1
-5 -29 10 -21 10 -21 -5 -3 -9 11 -14 28 -11 37 3 10 -1 19 -10 23 -21 8 -19
27 3 20 13 -5 14 -4 3 4 -8 6 -12 19 -8 31 3 12 1 24 -5 27 -5 4 -4 13 4 22 8
10 13 32 11 52 -2 19 -4 47 -5 62 0 18 -8 30 -21 34 -11 3 -41 20 -66 36 -39
24 -53 28 -87 23 -45 -6 -61 9 -49 46 6 17 2 18 -38 13 -39 -6 -45 -4 -49 14
-3 11 -1 25 5 31 6 6 8 11 3 11 -4 0 -1 6 7 14 8 8 20 14 28 13 38 -4 175 16
225 33 64 22 94 45 94 70 0 14 8 30 15 30 1 0 -1 -17 -5 -39z m-943 -776 c21
-22 61 -58 88 -80 28 -22 52 -43 55 -46 3 -3 15 -11 28 -18 12 -7 20 -16 17
-22 -4 -5 -3 -8 2 -7 11 3 123 -64 123 -74 0 -5 8 -8 18 -9 10 0 12 -3 5 -6
-21 -8 -14 -25 7 -18 11 3 20 2 20 -4 0 -5 10 -13 21 -16 16 -5 18 -9 9 -15
-17 -11 -29 -6 -125 49 -96 55 -294 241 -342 323 -47 81 -51 111 -5 43 23 -33
58 -78 79 -100z m825 -131 c-7 -12 -7 -25 -1 -37 6 -10 7 -27 4 -37 -4 -12 -2
-20 4 -20 13 0 14 -34 2 -58 -5 -9 -13 -30 -17 -46 -5 -16 -17 -33 -26 -37
-10 -5 -26 -13 -35 -17 -12 -6 -21 -29 -28 -68 -5 -32 -18 -70 -27 -84 -10
-13 -18 -35 -18 -48 0 -13 -4 -20 -10 -17 -5 3 -10 0 -10 -8 0 -26 -34 -13
-79 31 -24 23 -47 42 -52 42 -17 0 -164 133 -161 146 2 8 -6 14 -18 14 -11 0
-20 5 -20 10 0 15 89 4 109 -14 10 -9 31 -16 48 -16 17 0 33 -4 35 -10 4 -13
117 43 134 68 7 11 10 23 6 28 -4 5 -3 6 2 2 10 -9 66 28 66 44 0 5 -7 7 -16
4 -11 -4 -14 -1 -12 11 2 9 10 18 18 20 13 4 13 3 0 -7 -13 -10 -13 -11 0 -7
8 2 15 8 15 13 0 14 52 64 67 65 10 0 10 2 1 6 -9 3 -8 11 4 29 18 28 30 25
15 -2z"/>
</g>
</svg>
